<svg width="522" height="159" viewBox="0 0 522 159" fill="none" xmlns="http://www.w3.org/2000/svg">
<path d="M196.736 103.552H244.096L241.152 90.752H199.552L196.736 103.552ZM220.16 62.336L234.368 95.616L234.752 99.328L246.912 126.592H263.936L220.16 32L176.384 126.592H193.408L205.824 98.56L206.08 95.232L220.16 62.336Z" fill="#012856"/>
<path d="M281.62 81.792C281.62 75.392 283.028 69.8453 285.844 65.152C288.745 60.3733 292.5 56.704 297.108 54.144C301.801 51.4987 306.879 50.176 312.34 50.176C316.607 50.176 320.447 50.7307 323.86 51.84C327.273 52.9493 330.345 54.4853 333.076 56.448C335.892 58.3253 338.324 60.4587 340.372 62.848V44.928C336.617 41.856 332.564 39.5093 328.212 37.888C323.86 36.2667 318.399 35.456 311.828 35.456C305.257 35.456 299.113 36.5653 293.396 38.784C287.764 41.0027 282.857 44.2027 278.676 48.384C274.495 52.5653 271.209 57.5147 268.82 63.232C266.516 68.864 265.364 75.0507 265.364 81.792C265.364 88.5333 266.516 94.7627 268.82 100.48C271.209 106.112 274.495 111.019 278.676 115.2C282.857 119.381 287.764 122.581 293.396 124.8C299.113 127.019 305.257 128.128 311.828 128.128C318.399 128.128 323.86 127.317 328.212 125.696C332.564 124.075 336.617 121.728 340.372 118.656V100.736C338.324 103.125 335.892 105.301 333.076 107.264C330.345 109.141 327.273 110.635 323.86 111.744C320.447 112.853 316.607 113.408 312.34 113.408C306.879 113.408 301.801 112.128 297.108 109.568C292.5 106.923 288.745 103.211 285.844 98.432C283.028 93.6533 281.62 88.1067 281.62 81.792Z" fill="#012856"/>
<path d="M375.624 72.064L402.888 118.272L430.152 72.064L436.424 126.592H452.04L439.752 32.512L402.888 93.312L366.152 32.512L353.864 126.592H369.48L375.624 72.064Z" fill="#012856"/>
<path d="M476.078 126.592H521.262V113.28H476.078V126.592ZM476.078 50.304H521.262V36.992H476.078V50.304ZM476.078 85.12H518.702V72.064H476.078V85.12ZM466.734 36.992V126.592H481.582V36.992H466.734Z" fill="#012856"/>
<path d="M79.752 152.504C59.6627 152.504 41.4747 144.362 28.3098 131.197C15.1418 118.029 7 99.8413 7 79.752C7 59.6658 15.1386 41.4841 28.2973 28.3192C41.4621 15.148 59.6564 7 79.7489 7C119.927 7 152.501 39.5702 152.501 79.752C152.501 119.934 119.931 152.504 79.752 152.504Z" stroke="#012856" stroke-width="12.5499" stroke-miterlimit="10" stroke-linecap="round" stroke-linejoin="round"/>
<path d="M92.691 47.1598C95.703 46.0648 99.0821 45.4969 102.653 45.4969C115.328 45.4969 125.603 55.7722 125.603 68.4476C125.603 90.9999 79.752 125.547 79.752 125.547C79.752 125.547 33.8004 90.9999 33.8004 68.4476C33.8004 55.7722 44.0757 45.4969 56.7511 45.4969C69.4266 45.4969 79.7018 55.7722 79.7018 68.4476" stroke="#012856" stroke-width="12.5499" stroke-miterlimit="10" stroke-linecap="round" stroke-linejoin="round"/>
</svg>
