<svg width="454" height="151" viewBox="0 0 454 151" fill="none" xmlns="http://www.w3.org/2000/svg">
<path d="M193.2 92H230.2L227.9 82H195.4L193.2 92ZM211.5 59.8L222.6 85.8L222.9 88.7L232.4 110H245.7L211.5 36.1L177.3 110H190.6L200.3 88.1L200.5 85.5L211.5 59.8ZM259.516 75C259.516 70 260.616 65.6667 262.816 62C265.082 58.2667 268.016 55.4 271.616 53.4C275.282 51.3333 279.249 50.3 283.516 50.3C286.849 50.3 289.849 50.7333 292.516 51.6C295.182 52.4667 297.582 53.6667 299.716 55.2C301.916 56.6667 303.816 58.3333 305.416 60.2V46.2C302.482 43.8 299.316 41.9667 295.916 40.7C292.516 39.4333 288.249 38.8 283.116 38.8C277.982 38.8 273.182 39.6667 268.716 41.4C264.316 43.1333 260.482 45.6333 257.216 48.9C253.949 52.1667 251.382 56.0333 249.516 60.5C247.716 64.9 246.816 69.7333 246.816 75C246.816 80.2667 247.716 85.1333 249.516 89.6C251.382 94 253.949 97.8333 257.216 101.1C260.482 104.367 264.316 106.867 268.716 108.6C273.182 110.333 277.982 111.2 283.116 111.2C288.249 111.2 292.516 110.567 295.916 109.3C299.316 108.033 302.482 106.2 305.416 103.8V89.8C303.816 91.6667 301.916 93.3667 299.716 94.9C297.582 96.3667 295.182 97.5333 292.516 98.4C289.849 99.2667 286.849 99.7 283.516 99.7C279.249 99.7 275.282 98.7 271.616 96.7C268.016 94.6333 265.082 91.7333 262.816 88C260.616 84.2667 259.516 79.9333 259.516 75ZM332.956 67.4L354.256 103.5L375.556 67.4L380.456 110H392.656L383.056 36.5L354.256 84L325.556 36.5L315.956 110H328.156L332.956 67.4ZM411.436 110H446.736V99.6H411.436V110ZM411.436 50.4H446.736V40H411.436V50.4ZM411.436 77.6H444.736V67.4H411.436V77.6ZM404.136 40V110H415.736V40H404.136Z" fill="#012856"/>
<path d="M75.252 144.504C56.1292 144.504 38.8162 136.754 26.2846 124.222C13.7501 111.688 6 94.3749 6 75.252C6 56.1321 13.7471 38.8251 26.2727 26.2936C38.8042 13.7561 56.1232 6 75.249 6C113.495 6 144.501 37.0033 144.501 75.252C144.501 113.501 113.498 144.504 75.252 144.504Z" stroke="#012856" stroke-width="11.9462" stroke-miterlimit="10" stroke-linecap="round" stroke-linejoin="round"/>
<path d="M87.5685 44.2278C90.4356 43.1855 93.6521 42.6449 97.0508 42.6449C109.116 42.6449 118.897 52.4258 118.897 64.4915C118.897 85.9588 75.252 118.844 75.252 118.844C75.252 118.844 31.5111 85.9588 31.5111 64.4915C31.5111 52.4258 41.292 42.6449 53.3577 42.6449C65.4233 42.6449 75.2042 52.4258 75.2042 64.4915" stroke="#012856" stroke-width="11.9462" stroke-miterlimit="10" stroke-linecap="round" stroke-linejoin="round"/>
</svg>
